<svg xmlns="http://www.w3.org/2000/svg" xmlns:xlink="http://www.w3.org/1999/xlink" width="270" height="42" viewBox="0 0 270 42">
    <defs>
        <path id="3s6rrw2j1a" d="M0 38.75L269.183 38.75 269.183 1.173 0 1.173z"/>
    </defs>
    <g fill="none" fill-rule="evenodd" opacity=".424">
        <g>
            <g>
                <path fill="#FFF" d="M49.907 29.943L49.907 9.969 70.131 9.969 70.131 13.37 54.023 13.37 54.023 17.951 67.339 17.951 67.339 21.388 54.023 21.388 54.023 26.506 70.131 26.506 70.131 29.943z" transform="translate(-405 -5753) translate(405 5753)"/>
                <g transform="translate(-405 -5753) translate(405 5753) translate(0 .077)">
                    <path fill="#FFF" d="M121.926 9.892h4.08v10.273c0 7.158-5.046 10.166-11.24 10.166-6.191 0-11.168-3.008-11.168-10.166V9.892h4.046v10.273c0 5.083 3.543 6.693 7.122 6.693 3.616 0 7.16-1.61 7.16-6.693V9.892z"/>
                    <mask id="qw5f27tm7b" fill="#fff">
                        <use xlink:href="#3s6rrw2j1a"/>
                    </mask>
                    <path fill="#FFF" d="M129.819 29.866L133.9 29.866 133.9 9.893 129.819 9.893zM142.184 16.621L142.184 29.865 138.104 29.865 138.104 9.534 158.042 23.422 158.042 9.893 162.122 9.893 162.122 30.223zM166.327 29.865L166.327 9.892 186.551 9.892 186.551 13.293 170.443 13.293 170.443 17.874 183.758 17.874 183.758 21.31 170.443 21.31 170.443 26.429 186.551 26.429 186.551 29.865zM202.444 26.429c4.582 0 8.985-1.432 8.985-6.55 0-5.084-4.403-6.55-8.986-6.55h-8.196v13.1h8.196zm-12.278 3.436V9.893h12.243c7.91 0 13.35 2.898 13.35 9.986 0 7.122-5.44 9.986-13.35 9.986h-12.243zM234.892 22.67v-3.436h11.06c.072.43.107.931.107 1.36-.179 5.835-5.87 9.629-13.207 9.629-8.663 0-14.283-4.331-14.283-10.416 0-6.12 5.764-10.273 14.139-10.273 3.651 0 7.41.536 10.381 1.898v3.686c-2.076-1.002-4.976-2.111-9.844-2.111-5.798 0-10.345 2.255-10.345 6.8 0 4.224 4.188 6.945 9.915 6.945 4.26 0 7.84-1.289 8.698-4.081h-6.621zM248.959 29.865L248.959 9.892 269.183 9.892 269.183 13.293 253.075 13.293 253.075 17.874 266.39 17.874 266.39 21.31 253.075 21.31 253.075 26.429 269.183 26.429 269.183 29.865zM96.256 19.934c0 4.332-4.402 6.872-10.166 6.872-5.797 0-10.092-2.54-10.092-6.872V19.9c0-4.334 4.295-6.872 10.092-6.872 5.764 0 10.166 2.538 10.166 6.872v.033zM86.09 9.557c-8.625 0-14.425 4.184-14.425 10.344v.033c0 6.158 5.8 10.343 14.425 10.343 8.629 0 14.495-4.15 14.495-10.343V19.9c0-6.192-5.866-10.344-14.495-10.344z" mask="url(#qw5f27tm7b)"/>
                    <path fill="#FFF" d="M87.993 21.649L93.768 21.646 101.955 30.33 96.148 30.33zM42.694 10.064l-3.04 4.123c-1.005-.923-2.003-1.753-2.994-2.493-.705-.532-1.407-1.015-2.102-1.458C17.224-.769 2.924 14.187 2.924 14.187L0 10.064s7.777-8.892 21.375-8.892c7.176 0 12.715 2.478 16.347 4.815.787.507 1.484 1.007 2.09 1.474 1.893 1.463 2.882 2.603 2.882 2.603M34.062 22.35l.001-.002v.002" mask="url(#qw5f27tm7b)"/>
                    <path fill="#FFF" d="M6.023 18.53l14.603 19.874c.333.453 1.007.463 1.354.018.654-.842 1.656-2.145 2.467-3.26.021-.02.544-.41-.505-2.245-.393-.686-1.205-2.293-.241-3.42 1.162-1.36.834-3.072.9-3.357 0 0 2.334-.244 2.518 5.345.84-1.1 1.558-2.119 2.405-3.308-3.48-9.495-11.013-7.118-11.013-7.118 8.071 2.368 1.791 9.007 1.791 9.007s2.236 3.75 2.346 4.299c.11.549-.68 1.316-1.155 1.316s-.885-.526-.885-.526l-5.944-8.905c1.712-.439.463-2.606.463-2.606-.093 1.627-1.441 1.342-1.441 1.342L9.14 18.1c2.477-.56 2.954 1.14 2.954 1.14 12.457-8.992 21.806 2.917 21.807 2.92 1.492-2.248 2.652-3.63 2.652-3.63s-14.212-16.185-30.53 0" mask="url(#qw5f27tm7b)"/>
                </g>
            </g>
        </g>
    </g>
</svg>
