<svg xmlns="http://www.w3.org/2000/svg" xmlns:xlink="http://www.w3.org/1999/xlink" width="110" height="42" viewBox="0 0 110 42">
    <defs>
        <path id="btwcmsmd1a" d="M0 0.011L5.906 0.011 5.906 5.961 0 5.961z"/>
        <path id="0v5uh4qxzc" d="M0 41.358L109.983 41.358 109.983 0 0 0z"/>
        <path id="id82oo21ve" d="M.453.151l.635.719C.795.75.715.833.677.988L.04.27"/>
        <path id="k5zl3ubfng" d="M.453.151l.635.719C.795.75.715.833.677.988L.04.27"/>
        <path id="6q0wr9rbwi" d="M.453.151l.635.719C.795.75.715.833.677.988L.04.27"/>
        <path id="6r2dp2pisk" d="M.453.151l.635.719C.795.75.715.833.677.988L.04.27"/>
        <path id="vchd8bkqfm" d="M.453.151l.635.719C.795.75.715.833.677.988L.04.27"/>
        <path id="obst647doo" d="M.453.151l.635.719C.795.75.715.833.677.988L.04.27"/>
        <path id="gv4v8rvpiq" d="M.453.151l.635.719C.795.75.715.833.677.988L.04.27"/>
        <path id="jegzmesl0s" d="M.453.151l.635.719C.795.75.715.833.677.988L.04.27"/>
        <path id="4tj4qr0wcu" d="M.04.006C.106.083.204.13.32.13l.715.822C.918.95.821.905.754.828"/>
        <path id="1vh1xdvfqw" d="M.04.006C.106.083.204.13.32.13l.715.822C.918.95.821.905.754.828"/>
        <path id="gqbk33448y" d="M.04.006C.106.083.204.13.32.13l.715.822C.918.95.821.905.754.828"/>
        <path id="rbt6f896uA" d="M.512.105l.572.575c-.058.21-.281.381-.498.382L.015.487"/>
        <path id="s1k5aww15C" d="M.512.105l.572.575c-.058.21-.281.381-.498.382L.015.487"/>
        <path id="ebqw3uepbE" d="M.512.105l.572.575c-.058.21-.281.381-.498.382L.015.487"/>
        <path id="1l65t21guG" d="M.512.105l.572.575c-.058.21-.281.381-.498.382L.015.487"/>
        <path id="7pkl47ymbI" d="M.512.105l.572.575c-.058.21-.281.381-.498.382L.015.487"/>
        <path id="c6ym68rl0K" d="M.512.105l.572.575c-.058.21-.281.381-.498.382L.015.487"/>
        <path id="dtf5uukmuM" d="M.019.04c.115.155.277.322.598.403l.476.639C.773 1 .61.834.495.679"/>
        <path id="j0nenpc9vO" d="M.019.04c.115.155.277.322.598.403l.476.639C.773 1 .61.834.495.679"/>
        <path id="5h82bs42cQ" d="M.366.009l.326.328-.32.218L.046.227"/>
        <path id="yjckfoe2xS" d="M.13.08l.816.64c.1.077.139.195.094.326L.223.407"/>
        <path id="1cy810xs0U" d="M.13.08l.816.64c.1.077.139.195.094.326L.223.407"/>
        <path id="6d570651oW" d="M.13.08l.816.64c.1.077.139.195.094.326L.223.407"/>
        <path id="ms997n385Y" d="M.13.08l.816.64c.1.077.139.195.094.326L.223.407"/>
        <path id="lb3stxy8kaa" d="M.13.08l.816.64c.1.077.139.195.094.326L.223.407"/>
        <path id="vsogaizqwac" d="M.13.08l.816.64c.1.077.139.195.094.326L.223.407"/>
        <path id="zrmt9pld4ae" d="M.101.156C.161.233.247.28.352.28l.636.821C.883 1.1.796 1.054.737.978"/>
        <path id="wt7img0uqag" d="M.101.156C.161.233.247.28.352.28l.636.821C.883 1.1.796 1.054.737.978"/>
        <path id="14k6tmzyvai" d="M.101.156C.161.233.247.28.352.28l.636.821C.883 1.1.796 1.054.737.978"/>
        <path id="ukbj9srq6ak" d="M.52.1l.52.575c-.051.21-.256.382-.453.382L.068.482"/>
        <path id="0uzqrwyy2am" d="M.52.1l.52.575c-.051.21-.256.382-.453.382L.068.482"/>
        <path id="7kkpfr3odao" d="M.52.1l.52.575c-.051.21-.256.382-.453.382L.068.482"/>
        <path id="w3em8mzh4aq" d="M.52.1l.52.575c-.051.21-.256.382-.453.382L.068.482"/>
        <path id="adaxd4obxas" d="M.52.1l.52.575c-.051.21-.256.382-.453.382L.068.482"/>
        <path id="ev6y2tanaau" d="M.52.1l.52.575c-.051.21-.256.382-.453.382L.068.482"/>
        <path id="umfqiba9aaw" d="M.143.081L.96.72c.1.077.14.195.094.327L.237.407"/>
        <path id="xkuej2xaxay" d="M.143.081L.96.72c.1.077.14.195.094.327L.237.407"/>
        <path id="ugo7q7ksraA" d="M.143.081L.96.72c.1.077.14.195.094.327L.237.407"/>
        <path id="cnrbfdll2aC" d="M.143.081L.96.72c.1.077.14.195.094.327L.237.407"/>
        <path id="xw54tif43aE" d="M.143.081L.96.72c.1.077.14.195.094.327L.237.407"/>
        <path id="codiwicdlaG" d="M.143.081L.96.72c.1.077.14.195.094.327L.237.407"/>
        <path id="psdzv7axbaI" d="M.16.033l.816.64c-.048.13-.01.249.09.326L.249.36"/>
        <path id="8grcdh4myaK" d="M.16.033l.816.64c-.048.13-.01.249.09.326L.249.36"/>
        <path id="5uhb4qquwaM" d="M.16.033l.816.64c-.048.13-.01.249.09.326L.249.36"/>
        <path id="8v0mjai23aO" d="M.16.033l.816.64c-.048.13-.01.249.09.326L.249.36"/>
        <path id="p2uu0uocdaQ" d="M.16.033l.816.64c-.048.13-.01.249.09.326L.249.36"/>
        <path id="x5jql44yvaS" d="M.16.033l.816.64c-.048.13-.01.249.09.326L.249.36"/>
        <path id="7b96539kjaU" d="M.049.084l.816.639c.1.077.14.195.094.327L.142.41"/>
        <path id="lqtqr2f2vaW" d="M.049.084l.816.639c.1.077.14.195.094.327L.142.41"/>
        <path id="xt6n13y89aY" d="M.049.084l.816.639c.1.077.14.195.094.327L.142.41"/>
        <path id="ail1u4ylvba" d="M.049.084l.816.639c.1.077.14.195.094.327L.142.41"/>
        <path id="4o7o6barsbc" d="M.049.084l.816.639c.1.077.14.195.094.327L.142.41"/>
        <path id="kurpgozerbe" d="M.049.084l.816.639c.1.077.14.195.094.327L.142.41"/>
        <path id="62te0b2ywbg" d="M47.107.013l.326.328c-.032.12-.108.306-.167.415-.184.335-3.68 6.698-11.379 6.712l-4.841.008-.34.001-6.503.012-5.957.01h-.101l-.45.001-11.458.02c-2.914 0-4.733-.904-5.87-2.046l-.325-.328C1.178 6.288 2.997 7.193 5.91 7.193l11.458-.02.45-.002h.07l5.988-.01 11.684-.021C43.26 7.126 46.756.763 46.939.428"/>
        <path id="4qluo0ulwbi" d="M47.107.013l.326.328c-.032.12-.108.306-.167.415-.184.335-3.68 6.698-11.379 6.712l-4.841.008-.34.001-6.503.012-5.957.01h-.101l-.45.001-11.458.02c-2.914 0-4.733-.904-5.87-2.046l-.325-.328C1.178 6.288 2.997 7.193 5.91 7.193l11.458-.02.45-.002h.07l5.988-.01 11.684-.021C43.26 7.126 46.756.763 46.939.428"/>
        <path id="qhhcwiaytbk" d="M47.107.013l.326.328c-.032.12-.108.306-.167.415-.184.335-3.68 6.698-11.379 6.712l-4.841.008-.34.001-6.503.012-5.957.01h-.101l-.45.001-11.458.02c-2.914 0-4.733-.904-5.87-2.046l-.325-.328C1.178 6.288 2.997 7.193 5.91 7.193l11.458-.02.45-.002h.07l5.988-.01 11.684-.021C43.26 7.126 46.756.763 46.939.428"/>
        <path id="erkci1vk5bm" d="M47.107.013l.326.328c-.032.12-.108.306-.167.415-.184.335-3.68 6.698-11.379 6.712l-4.841.008-.34.001-6.503.012-5.957.01h-.101l-.45.001-11.458.02c-2.914 0-4.733-.904-5.87-2.046l-.325-.328C1.178 6.288 2.997 7.193 5.91 7.193l11.458-.02.45-.002h.07l5.988-.01 11.684-.021C43.26 7.126 46.756.763 46.939.428"/>
        <path id="ba251j6gpbo" d="M47.107.013l.326.328c-.032.12-.108.306-.167.415-.184.335-3.68 6.698-11.379 6.712l-4.841.008-.34.001-6.503.012-5.957.01h-.101l-.45.001-11.458.02c-2.914 0-4.733-.904-5.87-2.046l-.325-.328C1.178 6.288 2.997 7.193 5.91 7.193l11.458-.02.45-.002h.07l5.988-.01 11.684-.021C43.26 7.126 46.756.763 46.939.428"/>
        <path id="8lkqjj0vubq" d="M47.107.013l.326.328c-.032.12-.108.306-.167.415-.184.335-3.68 6.698-11.379 6.712l-4.841.008-.34.001-6.503.012-5.957.01h-.101l-.45.001-11.458.02c-2.914 0-4.733-.904-5.87-2.046l-.325-.328C1.178 6.288 2.997 7.193 5.91 7.193l11.458-.02.45-.002h.07l5.988-.01 11.684-.021C43.26 7.126 46.756.763 46.939.428"/>
        <path id="715vnhym4bs" d="M47.107.013l.326.328c-.032.12-.108.306-.167.415-.184.335-3.68 6.698-11.379 6.712l-4.841.008-.34.001-6.503.012-5.957.01h-.101l-.45.001-11.458.02c-2.914 0-4.733-.904-5.87-2.046l-.325-.328C1.178 6.288 2.997 7.193 5.91 7.193l11.458-.02.45-.002h.07l5.988-.01 11.684-.021C43.26 7.126 46.756.763 46.939.428"/>
        <path id="mkgyrurdtbu" d="M47.107.013l.326.328c-.032.12-.108.306-.167.415-.184.335-3.68 6.698-11.379 6.712l-4.841.008-.34.001-6.503.012-5.957.01h-.101l-.45.001-11.458.02c-2.914 0-4.733-.904-5.87-2.046l-.325-.328C1.178 6.288 2.997 7.193 5.91 7.193l11.458-.02.45-.002h.07l5.988-.01 11.684-.021C43.26 7.126 46.756.763 46.939.428"/>
    </defs>
    <g fill="none" fill-rule="evenodd" opacity=".424">
        <g>
            <g transform="translate(-1325 -5753) translate(1325 5753)">
                <g transform="translate(0 35.397)">
                    <mask id="syb6mtqjhb" fill="#fff">
                        <use xlink:href="#btwcmsmd1a"/>
                    </mask>
                    <path fill="#FEFEFE" d="M5.906 4.794c0 .69-.666 1.167-1.631 1.167H1.632C.666 5.961 0 5.485 0 4.794V.011h1.655v4.553c0 .181.138.28.39.28h1.816c.253 0 .39-.099.39-.28V.011h1.655v4.783z" mask="url(#syb6mtqjhb)"/>
                </g>
                <path fill="#FEFEFE" d="M13.973 35.408L13.973 41.325 12.192 41.325 9.147 37.29 9.147 41.325 7.595 41.325 7.595 35.408 9.376 35.408 12.422 39.443 12.422 35.408z"/>
                <mask id="9f57uf47ad" fill="#fff">
                    <use xlink:href="#0v5uh4qxzc"/>
                </mask>
                <path fill="#FEFEFE" d="M15.788 41.325L17.443 41.325 17.443 35.408 15.788 35.408zM23.005 41.325L21.074 41.325 18.558 35.408 20.442 35.408 22.039 39.903 23.682 35.408 25.521 35.408zM32.048 35.408L32.048 36.526 28.29 36.526 28.29 37.742 31.335 37.742 31.335 38.86 28.29 38.86 28.29 40.207 32.048 40.207 32.048 41.325 26.636 41.325 26.636 35.408zM37.701 36.805c0-.18-.138-.28-.39-.28h-2.15v1.505h2.15c.252 0 .39-.1.39-.28v-.945zm.127 4.52l-1.333-2.194h-1.333v2.194h-1.655v-5.917h4.217c.965 0 1.632.477 1.632 1.167v1.389c0 .559-.437.978-1.126 1.117l1.379 2.244h-1.781zM44.837 36.772c0-.18-.138-.28-.39-.28h-1.655c-.253 0-.391.1-.391.28v.559c0 .18.138.238.39.28l2.138.328c.896.14 1.655.526 1.655 1.184v1.068c0 .69-.667 1.167-1.632 1.167h-2.574c-.965 0-1.632-.477-1.632-1.167v-.756h1.61v.526c0 .18.137.28.39.28h1.792c.253 0 .391-.1.391-.28v-.625c0-.18-.138-.238-.39-.28l-2.138-.328c-.896-.14-1.655-.526-1.655-1.183v-1.003c0-.69.667-1.167 1.632-1.167h2.436c.965 0 1.632.477 1.632 1.167v.69h-1.609v-.46zM50.02 38.876h1.77l-.874-2.17-.896 2.17zm-1.012 2.449h-1.712l2.666-5.917h1.93l2.666 5.917h-1.78l-.54-1.331H49.56l-.552 1.33zM57.305 35.408L57.305 40.207 60.775 40.207 60.775 41.325 55.65 41.325 55.65 35.408zM72.714 41.325L71.151 41.325 71.151 37.38 69.358 40.38 68.163 40.38 66.371 37.38 66.371 41.325 64.808 41.325 64.808 35.408 66.624 35.408 68.761 38.876 70.898 35.408 72.714 35.408zM79.942 35.408L79.942 36.526 76.184 36.526 76.184 37.742 79.229 37.742 79.229 38.86 76.184 38.86 76.184 40.207 79.942 40.207 79.942 41.325 74.529 41.325 74.529 35.408zM84.595 36.509L84.595 41.325 82.941 41.325 82.941 36.509 80.78 36.509 80.78 35.408 86.756 35.408 86.756 36.509zM89.192 38.876h1.77l-.874-2.17-.896 2.17zm-1.012 2.449h-1.712l2.666-5.917h1.93l2.666 5.917h-1.78l-.54-1.331h-2.678l-.552 1.33zM96.477 35.408L96.477 40.207 99.947 40.207 99.947 41.325 94.822 41.325 94.822 35.408zM104.945 36.772c0-.18-.137-.28-.39-.28H102.9c-.253 0-.39.1-.39.28v.559c0 .18.137.238.39.28l2.137.328c.897.14 1.655.526 1.655 1.184v1.068c0 .69-.666 1.167-1.632 1.167h-2.574c-.965 0-1.631-.477-1.631-1.167v-.756h1.608v.526c0 .18.138.28.391.28h1.793c.253 0 .39-.1.39-.28v-.625c0-.18-.137-.238-.39-.28l-2.138-.328c-.896-.14-1.654-.526-1.654-1.183v-1.003c0-.69.666-1.167 1.631-1.167h2.437c.965 0 1.631.477 1.631 1.167v.69h-1.609v-.46z" mask="url(#9f57uf47ad)"/>
                <g mask="url(#9f57uf47ad)">
                    <g>
                        <g>
                            <g transform="translate(50.764 .131) translate(19.39 11.483)">
                                <mask id="iys8wfo0vf" fill="#fff">
                                    <use xlink:href="#id82oo21ve"/>
                                </mask>
                                <path fill="#DBDAD9" d="M.453.151l.635.719C1.04.85.998.836.96.827L.326.108c.037.01.08.024.127.043" mask="url(#iys8wfo0vf)"/>
                            </g>
                            <g transform="translate(50.764 .131) translate(19.39 11.483)">
                                <mask id="aeeyy03arh" fill="#fff">
                                    <use xlink:href="#k5zl3ubfng"/>
                                </mask>
                                <path fill="#DCDBDA" d="M.326.108l.635.72C.926.817.896.813.87.812L.234.094C.26.095.29.1.326.108" mask="url(#aeeyy03arh)"/>
                            </g>
                            <g transform="translate(50.764 .131) translate(19.39 11.483)">
                                <mask id="vieyifthkj" fill="#fff">
                                    <use xlink:href="#6q0wr9rbwi"/>
                                </mask>
                                <path fill="#DDDCDC" d="M.234.094l.635.719c-.017 0-.032 0-.046.003L.188.097C.202.095.218.094.234.094" mask="url(#vieyifthkj)"/>
                            </g>
                            <g transform="translate(50.764 .131) translate(19.39 11.483)">
                                <mask id="l20e26asyl" fill="#fff">
                                    <use xlink:href="#6r2dp2pisk"/>
                                </mask>
                                <path fill="#DFDEDD" d="M.188.097l.635.719C.813.817.802.82.793.824L.156.105C.167.101.177.1.188.097" mask="url(#l20e26asyl)"/>
                            </g>
                            <g transform="translate(50.764 .131) translate(19.39 11.483)">
                                <mask id="ibelffmfqn" fill="#fff">
                                    <use xlink:href="#vchd8bkqfm"/>
                                </mask>
                                <path fill="#E0DFDE" d="M.157.105l.635.719C.782.827.773.832.765.837L.13.118C.138.113.147.108.157.105" mask="url(#ibelffmfqn)"/>
                            </g>
                            <g transform="translate(50.764 .131) translate(19.39 11.483)">
                                <mask id="82rattjhhp" fill="#fff">
                                    <use xlink:href="#obst647doo"/>
                                </mask>
                                <path fill="#E1E0E0" d="M.13.118l.635.719C.75.846.738.857.728.87L.092.151C.103.138.115.127.13.118" mask="url(#82rattjhhp)"/>
                            </g>
                            <g transform="translate(50.764 .131) translate(19.39 11.483)">
                                <mask id="rq9aow925r" fill="#fff">
                                    <use xlink:href="#gv4v8rvpiq"/>
                                </mask>
                                <path fill="#E3E2E1" d="M.092.151l.636.72C.72.877.715.887.71.896L.074.18.092.15" mask="url(#rq9aow925r)"/>
                            </g>
                            <g transform="translate(50.764 .131) translate(19.39 11.483)">
                                <mask id="rkmj98bbmt" fill="#fff">
                                    <use xlink:href="#jegzmesl0s"/>
                                </mask>
                                <path fill="#E1E0E0" d="M.074.179L.71.897C.695.923.685.954.677.988L.04.269C.05.235.061.204.074.18" mask="url(#rkmj98bbmt)"/>
                            </g>
                        </g>
                        <g>
                            <g transform="translate(50.764 .131) translate(.063 30.998)">
                                <mask id="biyfp3mslv" fill="#fff">
                                    <use xlink:href="#4tj4qr0wcu"/>
                                </mask>
                                <path fill="#DDDCDC" d="M.321.13l.715.82h-.012L.309.13H.32" mask="url(#biyfp3mslv)"/>
                            </g>
                            <g transform="translate(50.764 .131) translate(.063 30.998)">
                                <mask id="8grlymo7yx" fill="#fff">
                                    <use xlink:href="#1vh1xdvfqw"/>
                                </mask>
                                <path fill="#DCDBDA" d="M.309.13l.715.82C.992.95.963.945.934.938L.22.117c.028.007.058.011.089.012" mask="url(#8grlymo7yx)"/>
                            </g>
                            <g transform="translate(50.764 .131) translate(.063 30.998)">
                                <mask id="hx5vamgbzz" fill="#fff">
                                    <use xlink:href="#gqbk33448y"/>
                                </mask>
                                <path fill="#DBDAD9" d="M.22.117l.715.821C.862.92.8.881.755.828L.04.006c.046.054.107.092.18.11" mask="url(#hx5vamgbzz)"/>
                            </g>
                        </g>
                        <path fill="#DDDCDC" d="M13.939 31.025L14.265 31.353 0.536 31.378 0.209 31.05z" transform="translate(50.764 .131)"/>
                        <path fill="#E2E1E0" d="M19.411 11.606L19.737 11.934 14.549 31.135 14.222 30.807z" transform="translate(50.764 .131)"/>
                        <g>
                            <g transform="translate(50.764 .131) translate(13.93 30.747)">
                                <mask id="0lo0m6qh2B" fill="#fff">
                                    <use xlink:href="#rbt6f896uA"/>
                                </mask>
                                <path fill="#E1E0E0" d="M.512.105l.572.575c-.011.041-.03.08-.052.118L.46.223C.483.186.5.146.512.105" mask="url(#0lo0m6qh2B)"/>
                            </g>
                            <g transform="translate(50.764 .131) translate(13.93 30.747)">
                                <mask id="qlxkc2po9D" fill="#fff">
                                    <use xlink:href="#s1k5aww15C"/>
                                </mask>
                                <path fill="#E3E2E1" d="M.46.223l.572.575C1.014.827.994.855.97.88L.398.305C.422.28.443.252.46.223" mask="url(#qlxkc2po9D)"/>
                            </g>
                            <g transform="translate(50.764 .131) translate(13.93 30.747)">
                                <mask id="dg2zwjhxgF" fill="#fff">
                                    <use xlink:href="#ebqw3uepbE"/>
                                </mask>
                                <path fill="#E1E0E0" d="M.398.305L.97.88C.927.927.876.968.82.998L.248.423c.056-.03.107-.07.15-.118" mask="url(#dg2zwjhxgF)"/>
                            </g>
                            <g transform="translate(50.764 .131) translate(13.93 30.747)">
                                <mask id="ttzd65zg2H" fill="#fff">
                                    <use xlink:href="#1l65t21guG"/>
                                </mask>
                                <path fill="#E0DFDE" d="M.248.423L.82.998c-.03.017-.062.03-.095.041L.154.464C.186.454.218.44.248.424" mask="url(#ttzd65zg2H)"/>
                            </g>
                            <g transform="translate(50.764 .131) translate(13.93 30.747)">
                                <mask id="s3veb7c5qJ" fill="#fff">
                                    <use xlink:href="#7pkl47ymbI"/>
                                </mask>
                                <path fill="#DFDEDD" d="M.154.464l.571.575c-.026.008-.052.015-.078.019L.075.483C.1.479.128.473.154.464" mask="url(#s3veb7c5qJ)"/>
                            </g>
                            <g transform="translate(50.764 .131) translate(13.93 30.747)">
                                <mask id="ks1oz4jx9L" fill="#fff">
                                    <use xlink:href="#c6ym68rl0K"/>
                                </mask>
                                <path fill="#DDDCDC" d="M.075.483l.572.575c-.02.002-.04.004-.06.004L.014.487c.02 0 .04-.001.06-.004" mask="url(#ks1oz4jx9L)"/>
                            </g>
                        </g>
                        <g>
                            <g transform="translate(50.764 .131) translate(27.798 20.33)">
                                <mask id="j7tp5kp2oN" fill="#fff">
                                    <use xlink:href="#dtf5uukmuM"/>
                                </mask>
                                <path fill="#DCDBDA" d="M.617.443l.476.639-.051-.014-.477-.64C.582.435.6.439.617.444" mask="url(#j7tp5kp2oN)"/>
                            </g>
                            <g transform="translate(50.764 .131) translate(27.798 20.33)">
                                <mask id="kqtuzey8tP" fill="#fff">
                                    <use xlink:href="#j0nenpc9vO"/>
                                </mask>
                                <path fill="#DBDAD9" d="M.565.429l.477.639C.754.982.604.825.495.679L.019.04C.128.186.278.344.565.43" mask="url(#kqtuzey8tP)"/>
                            </g>
                        </g>
                        <g transform="translate(50.764 .131) translate(28.175 20.33)">
                            <mask id="5p93chnf7R" fill="#fff">
                                <use xlink:href="#5h82bs42cQ"/>
                            </mask>
                            <path fill="#E1E0E0" d="M.366.009l.326.328-.32.218L.046.227.366.01" mask="url(#5p93chnf7R)"/>
                        </g>
                        <path fill="#E2E1E1" d="M41.661 11.566L41.987 11.894 28.867 20.668 28.541 20.34z" transform="translate(50.764 .131)"/>
                        <g>
                            <g transform="translate(50.764 .131) translate(58.796 .063)">
                                <mask id="m305qavuyT" fill="#fff">
                                    <use xlink:href="#yjckfoe2xS"/>
                                </mask>
                                <path fill="#DBDAD9" d="M.13.08l.816.64c.024.018.045.04.062.063L.19.144C.174.121.153.1.129.081" mask="url(#m305qavuyT)"/>
                            </g>
                            <g transform="translate(50.764 .131) translate(58.796 .063)">
                                <mask id="fk9ejmf99V" fill="#fff">
                                    <use xlink:href="#1cy810xs0U"/>
                                </mask>
                                <path fill="#DCDBDA" d="M.19.144l.818.639c.012.017.022.035.03.054L.221.198C.213.18.203.161.191.144" mask="url(#fk9ejmf99V)"/>
                            </g>
                            <g transform="translate(50.764 .131) translate(58.796 .063)">
                                <mask id="lc9rdatkbX" fill="#fff">
                                    <use xlink:href="#6d570651oW"/>
                                </mask>
                                <path fill="#DDDCDC" d="M.221.198l.817.64c.007.016.012.034.016.052L.237.252C.234.233.228.215.221.198" mask="url(#lc9rdatkbX)"/>
                            </g>
                            <g transform="translate(50.764 .131) translate(58.796 .063)">
                                <mask id="m3h4aua0gZ" fill="#fff">
                                    <use xlink:href="#ms997n385Y"/>
                                </mask>
                                <path fill="#DFDEDD" d="M.237.252l.817.638c.003.02.005.04.004.06L.241.31C.242.29.241.27.237.253" mask="url(#m3h4aua0gZ)"/>
                            </g>
                            <g transform="translate(50.764 .131) translate(58.796 .063)">
                                <mask id="41qcmyymwab" fill="#fff">
                                    <use xlink:href="#lb3stxy8kaa"/>
                                </mask>
                                <path fill="#E0DFDE" d="M.241.31l.817.64c0 .025-.005.05-.012.076L.229.388C.237.36.24.336.241.31" mask="url(#41qcmyymwab)"/>
                            </g>
                            <g transform="translate(50.764 .131) translate(58.796 .063)">
                                <mask id="dx1mppk09ad" fill="#fff">
                                    <use xlink:href="#vsogaizqwac"/>
                                </mask>
                                <path fill="#E1E0E0" d="M.229.388l.817.639-.006.02-.817-.64.006-.02" mask="url(#dx1mppk09ad)"/>
                            </g>
                        </g>
                        <g>
                            <g transform="translate(50.764 .131) translate(36.458 30.873)">
                                <mask id="0e719umjmaf" fill="#fff">
                                    <use xlink:href="#zrmt9pld4ae"/>
                                </mask>
                                <path fill="#DDDCDC" d="M.352.279l.636.821H.976L.341.28h.011" mask="url(#0e719umjmaf)"/>
                            </g>
                            <g transform="translate(50.764 .131) translate(36.458 30.873)">
                                <mask id="avjrgv8svah" fill="#fff">
                                    <use xlink:href="#wt7img0uqag"/>
                                </mask>
                                <path fill="#DCDBDA" d="M.341.279l.635.821c-.028 0-.054-.005-.08-.012L.263.267c.025.007.051.01.08.012" mask="url(#avjrgv8svah)"/>
                            </g>
                            <g transform="translate(50.764 .131) translate(36.458 30.873)">
                                <mask id="bjcqjwcefaj" fill="#fff">
                                    <use xlink:href="#14k6tmzyvai"/>
                                </mask>
                                <path fill="#DBDAD9" d="M.262.267l.635.82c-.065-.018-.12-.056-.16-.11L.1.157c.042.053.096.091.16.11" mask="url(#bjcqjwcefaj)"/>
                            </g>
                        </g>
                        <path fill="#DDDCDC" d="M50.368 30.959L50.694 31.287 36.964 31.312 36.638 30.984z" transform="translate(50.764 .131)"/>
                        <path fill="#E2E1E0" d="M58.885 0.272L59.211 0.6 50.978 31.07 50.651 30.742z" transform="translate(50.764 .131)"/>
                        <path fill="#F4F3F3" d="M58.72.055c.123 0 .197.098.165.217l-8.234 30.47c-.032.12-.16.218-.283.218l-13.73.024c-.124 0-.198-.097-.166-.217l5.19-19.201L28.54 20.34l-.32.218c-.265-.05-.372-.164-.455-.254l-8.144-8.752c-.15-.054-.192-.017-.211.054l-5.188 19.201c-.033.12-.16.218-.284.218l-13.73.025c-.123 0-.198-.098-.166-.217L8.277.363c.032-.12.16-.218.283-.218L22.508.12c.124 0 .297.07.385.155l8.311 8.091c.051.05.126.076.2.076.053 0 .106-.013.15-.041L44.357.202c.104-.067.29-.122.414-.122L58.72.055z" transform="translate(50.764 .131)"/>
                        <g>
                            <g transform="translate(50.764 .131) translate(50.325 30.685)">
                                <mask id="igawfq5s4al" fill="#fff">
                                    <use xlink:href="#ukbj9srq6ak"/>
                                </mask>
                                <path fill="#E1E0E0" d="M.52.1l.52.575c-.01.041-.026.081-.047.119L.473.219C.493.18.51.14.52.1" mask="url(#igawfq5s4al)"/>
                            </g>
                            <g transform="translate(50.764 .131) translate(50.325 30.685)">
                                <mask id="8cgsqz98ban" fill="#fff">
                                    <use xlink:href="#0uzqrwyy2am"/>
                                </mask>
                                <path fill="#E3E2E1" d="M.473.219l.52.575C.977.823.958.85.937.876L.417.3C.438.275.457.248.473.219" mask="url(#8cgsqz98ban)"/>
                            </g>
                            <g transform="translate(50.764 .131) translate(50.325 30.685)">
                                <mask id="2hxxana83ap" fill="#fff">
                                    <use xlink:href="#7kkpfr3odao"/>
                                </mask>
                                <path fill="#E1E0E0" d="M.417.3l.52.576C.897.923.85.963.8.993L.28.418C.332.388.379.348.418.301" mask="url(#2hxxana83ap)"/>
                            </g>
                            <g transform="translate(50.764 .131) translate(50.325 30.685)">
                                <mask id="u7hqn9y3sar" fill="#fff">
                                    <use xlink:href="#w3em8mzh4aq"/>
                                </mask>
                                <path fill="#E0DFDE" d="M.28.418L.8.993c-.027.017-.056.03-.085.041L.195.46C.225.45.253.435.281.42" mask="url(#u7hqn9y3sar)"/>
                            </g>
                            <g transform="translate(50.764 .131) translate(50.325 30.685)">
                                <mask id="zcn2bzu02at" fill="#fff">
                                    <use xlink:href="#adaxd4obxas"/>
                                </mask>
                                <path fill="#DFDEDD" d="M.195.46l.52.574c-.024.008-.048.014-.072.018L.123.477C.149.474.173.467.196.46" mask="url(#zcn2bzu02at)"/>
                            </g>
                            <g transform="translate(50.764 .131) translate(50.325 30.685)">
                                <mask id="jdvujeizoav" fill="#fff">
                                    <use xlink:href="#ev6y2tanaau"/>
                                </mask>
                                <path fill="#DDDCDC" d="M.124.477l.52.575c-.02.003-.038.005-.056.005L.068.482C.086.482.105.48.124.477" mask="url(#jdvujeizoav)"/>
                            </g>
                        </g>
                    </g>
                </g>
                <g mask="url(#9f57uf47ad)">
                    <g>
                        <g>
                            <g transform="translate(0 -.057) translate(21.335 .125)">
                                <mask id="kvdth0h1kax" fill="#fff">
                                    <use xlink:href="#umfqiba9aaw"/>
                                </mask>
                                <path fill="#DBDAD9" d="M.143.081L.96.72c.024.019.045.04.062.063L.205.145C.188.12.167.1.143.08" mask="url(#kvdth0h1kax)"/>
                            </g>
                            <g transform="translate(0 -.057) translate(21.335 .125)">
                                <mask id="9s4uz3qghaz" fill="#fff">
                                    <use xlink:href="#xkuej2xaxay"/>
                                </mask>
                                <path fill="#DCDBDA" d="M.205.145l.817.638c.012.017.022.036.03.055L.235.198C.227.18.217.163.205.146" mask="url(#9s4uz3qghaz)"/>
                            </g>
                            <g transform="translate(0 -.057) translate(21.335 .125)">
                                <mask id="o0h4h04wyaB" fill="#fff">
                                    <use xlink:href="#ugo7q7ksraA"/>
                                </mask>
                                <path fill="#DDDCDC" d="M.235.199l.817.639c.007.017.012.034.016.053L.25.252C.248.234.242.216.235.2" mask="url(#o0h4h04wyaB)"/>
                            </g>
                            <g transform="translate(0 -.057) translate(21.335 .125)">
                                <mask id="5oky7nft4aD" fill="#fff">
                                    <use xlink:href="#cnrbfdll2aC"/>
                                </mask>
                                <path fill="#DFDEDD" d="M.251.252l.817.639c.003.019.005.039.004.06L.255.31c.001-.02 0-.04-.004-.059" mask="url(#5oky7nft4aD)"/>
                            </g>
                            <g transform="translate(0 -.057) translate(21.335 .125)">
                                <mask id="o9272i55xaF" fill="#fff">
                                    <use xlink:href="#xw54tif43aE"/>
                                </mask>
                                <path fill="#E0DFDE" d="M.255.311l.817.64c0 .024-.005.05-.012.076L.243.388C.25.362.255.336.255.311" mask="url(#o9272i55xaF)"/>
                            </g>
                            <g transform="translate(0 -.057) translate(21.335 .125)">
                                <mask id="zywymemvaaH" fill="#fff">
                                    <use xlink:href="#codiwicdlaG"/>
                                </mask>
                                <path fill="#E1E0E0" d="M.243.388l.817.639-.006.02-.817-.64.006-.019" mask="url(#zywymemvaaH)"/>
                            </g>
                        </g>
                        <path fill="#E2E1E0" d="M21.429 0.335L21.756 0.663 15.638 23.312 15.312 22.984z" transform="translate(0 -.057)"/>
                        <g>
                            <g transform="translate(0 -.057) translate(15.248 22.966)">
                                <mask id="ygolafqxjaJ" fill="#fff">
                                    <use xlink:href="#psdzv7axbaI"/>
                                </mask>
                                <path fill="#E1E0E0" d="M.16.034l.816.638-.008.026L.15.06C.154.051.156.042.16.034" mask="url(#ygolafqxjaJ)"/>
                            </g>
                            <g transform="translate(0 -.057) translate(15.248 22.966)">
                                <mask id="996jxfiodaL" fill="#fff">
                                    <use xlink:href="#8grcdh4myaK"/>
                                </mask>
                                <path fill="#E0DFDE" d="M.151.06l.817.638C.961.724.957.75.956.774L.139.134C.14.112.144.086.151.06" mask="url(#996jxfiodaL)"/>
                            </g>
                            <g transform="translate(0 -.057) translate(15.248 22.966)">
                                <mask id="23dp2dfq4aN" fill="#fff">
                                    <use xlink:href="#5uhb4qquwaM"/>
                                </mask>
                                <path fill="#DFDEDD" d="M.14.135l.816.639c0 .02 0 .039.004.058L.143.192C.14.175.138.156.14.136" mask="url(#23dp2dfq4aN)"/>
                            </g>
                            <g transform="translate(0 -.057) translate(15.248 22.966)">
                                <mask id="zffrwh4zjaP" fill="#fff">
                                    <use xlink:href="#8v0mjai23aO"/>
                                </mask>
                                <path fill="#DDDCDC" d="M.143.193L.96.832C.963.85.97.867.976.884L.159.244C.152.229.147.212.143.194" mask="url(#zffrwh4zjaP)"/>
                            </g>
                            <g transform="translate(0 -.057) translate(15.248 22.966)">
                                <mask id="xkmblruggaR" fill="#fff">
                                    <use xlink:href="#p2uu0uocdaQ"/>
                                </mask>
                                <path fill="#DCDBDA" d="M.159.245l.817.639c.007.018.017.036.03.053L.187.298C.177.281.167.263.158.245" mask="url(#xkmblruggaR)"/>
                            </g>
                            <g transform="translate(0 -.057) translate(15.248 22.966)">
                                <mask id="gamh6ewcoaT" fill="#fff">
                                    <use xlink:href="#x5jql44yvaS"/>
                                </mask>
                                <path fill="#DBDAD9" d="M.188.298l.817.639c.017.023.037.044.06.062L.25.36C.225.342.205.32.189.298" mask="url(#gamh6ewcoaT)"/>
                            </g>
                        </g>
                        <g>
                            <g transform="translate(0 -.057) translate(55.408 .063)">
                                <mask id="y2khgaor2aV" fill="#fff">
                                    <use xlink:href="#7b96539kjaU"/>
                                </mask>
                                <path fill="#DBDAD9" d="M.048.084l.817.639C.89.742.91.763.927.786L.11.148C.093.124.073.103.048.084" mask="url(#y2khgaor2aV)"/>
                            </g>
                            <g transform="translate(0 -.057) translate(55.408 .063)">
                                <mask id="5mq53hh78aX" fill="#fff">
                                    <use xlink:href="#lqtqr2f2vaW"/>
                                </mask>
                                <path fill="#DCDBDA" d="M.11.148l.817.638c.012.017.022.036.03.055L.14.2C.133.184.122.166.11.149" mask="url(#5mq53hh78aX)"/>
                            </g>
                            <g transform="translate(0 -.057) translate(55.408 .063)">
                                <mask id="imk0n5068aZ" fill="#fff">
                                    <use xlink:href="#xt6n13y89aY"/>
                                </mask>
                                <path fill="#DDDCDC" d="M.14.202L.957.84C.964.858.97.875.973.894L.156.255C.153.237.147.22.14.202" mask="url(#imk0n5068aZ)"/>
                            </g>
                            <g transform="translate(0 -.057) translate(55.408 .063)">
                                <mask id="3z60fp6u9bb" fill="#fff">
                                    <use xlink:href="#ail1u4ylvba"/>
                                </mask>
                                <path fill="#DFDEDD" d="M.156.255l.817.639c.004.019.005.039.004.06L.16.313C.161.294.16.274.156.255" mask="url(#3z60fp6u9bb)"/>
                            </g>
                            <g transform="translate(0 -.057) translate(55.408 .063)">
                                <mask id="igexxy62kbd" fill="#fff">
                                    <use xlink:href="#4o7o6barsbc"/>
                                </mask>
                                <path fill="#E0DFDE" d="M.16.314l.817.64c0 .024-.005.05-.012.076L.148.39C.156.365.16.34.161.314" mask="url(#igexxy62kbd)"/>
                            </g>
                            <g transform="translate(0 -.057) translate(55.408 .063)">
                                <mask id="gjlzhxthnbf" fill="#fff">
                                    <use xlink:href="#kurpgozerbe"/>
                                </mask>
                                <path fill="#E1E0E0" d="M.148.391l.817.639-.006.02L.142.41.148.392" mask="url(#gjlzhxthnbf)"/>
                            </g>
                        </g>
                        <path fill="#E2E1E0" d="M55.465 0.274L55.791 0.602 49.316 24.562 48.989 24.234z" transform="translate(0 -.057)"/>
                        <path fill="#F4F3F3" d="M55.298.057c.124 0 .199.097.167.217l-6.476 23.96c-.032.12-.107.306-.167.415-.184.335-3.679 6.698-11.379 6.712l-11.683.021c-3.625.007-5.937.01-6.06.01l-.448.002-11.459.02c-7.7 0-7.758-6.318-7.76-6.65-.002-.124.024-.322.056-.442L6.564.362c.032-.12.16-.218.284-.218L21.263.118c.124 0 .199.098.166.217l-6.117 22.649c-.034.119.04.216.163.216l5.994-.01.45-.002 5.833-.01.45-.001 5.993-.01c.124 0 .25-.1.28-.22L40.6.302c.032-.12.16-.218.283-.218L55.298.057z" transform="translate(0 -.057)"/>
                        <g>
                            <g transform="translate(0 -.057) translate(1.882 24.221)">
                                <mask id="e6vvmdi1fbh" fill="#fff">
                                    <use xlink:href="#62te0b2ywbg"/>
                                </mask>
                                <path fill="#E1E0E0" d="M47.107.013l.326.328c-.032.12-.108.306-.167.415-.02.036-.078.142-.176.302L46.764.73c.097-.16.156-.266.175-.302.06-.109.136-.295.168-.415" mask="url(#e6vvmdi1fbh)"/>
                            </g>
                            <g transform="translate(0 -.057) translate(1.882 24.221)">
                                <mask id="9zmgoa05abj" fill="#fff">
                                    <use xlink:href="#4qluo0ulwbi"/>
                                </mask>
                                <path fill="#E3E2E1" d="M46.764.73l.326.328c-.25.41-.758 1.177-1.543 2.04l-.326-.327c.785-.864 1.293-1.63 1.543-2.04" mask="url(#9zmgoa05abj)"/>
                            </g>
                            <g transform="translate(0 -.057) translate(1.882 24.221)">
                                <mask id="nun6rot79bl" fill="#fff">
                                    <use xlink:href="#qhhcwiaytbk"/>
                                </mask>
                                <path fill="#E1E0E0" d="M45.22 2.77l.327.329c-.85.934-2.024 1.984-3.547 2.82l-.326-.329c1.522-.835 2.697-1.885 3.547-2.82" mask="url(#nun6rot79bl)"/>
                            </g>
                            <g transform="translate(0 -.057) translate(1.882 24.221)">
                                <mask id="97f9jx8wybn" fill="#fff">
                                    <use xlink:href="#erkci1vk5bm"/>
                                </mask>
                                <path fill="#E0DFDE" d="M41.674 5.59l.326.328c-.66.363-1.387.686-2.18.941l-.327-.328c.794-.255 1.52-.578 2.181-.94" mask="url(#97f9jx8wybn)"/>
                            </g>
                            <g transform="translate(0 -.057) translate(1.882 24.221)">
                                <mask id="asw8j6bu0bp" fill="#fff">
                                    <use xlink:href="#ba251j6gpbo"/>
                                </mask>
                                <path fill="#DFDEDD" d="M39.493 6.531l.327.328c-.638.206-1.318.368-2.044.473l-.326-.328c.725-.105 1.406-.267 2.043-.473" mask="url(#asw8j6bu0bp)"/>
                            </g>
                            <g transform="translate(0 -.057) translate(1.882 24.221)">
                                <mask id="yg1qpud06br" fill="#fff">
                                    <use xlink:href="#8lkqjj0vubq"/>
                                </mask>
                                <path fill="#DDDCDC" d="M37.45 7.004l.326.328c-.599.087-1.228.135-1.889.136l-11.684.02-6.058.011-.45.001-11.458.02c-.118 0-.233 0-.347-.004l-.326-.328c.113.003.23.005.347.005l11.458-.02.45-.002 6.058-.01 11.684-.021c.66-.001 1.29-.05 1.89-.136" mask="url(#yg1qpud06br)"/>
                            </g>
                            <g transform="translate(0 -.057) translate(1.882 24.221)">
                                <mask id="d2e83yzr9bt" fill="#fff">
                                    <use xlink:href="#715vnhym4bs"/>
                                </mask>
                                <path fill="#DCDBDA" d="M5.564 7.188l.326.328c-.781-.02-1.48-.107-2.105-.246l-.326-.328c.625.14 1.324.226 2.105.246" mask="url(#d2e83yzr9bt)"/>
                            </g>
                            <g transform="translate(0 -.057) translate(1.882 24.221)">
                                <mask id="wg54xeefpbv" fill="#fff">
                                    <use xlink:href="#mkgyrurdtbu"/>
                                </mask>
                                <path fill="#DBDAD9" d="M3.46 6.942l.325.328C2.24 6.924 1.145 6.254.368 5.474l-.326-.328c.776.78 1.871 1.45 3.417 1.796" mask="url(#wg54xeefpbv)"/>
                            </g>
                        </g>
                    </g>
                </g>
            </g>
        </g>
    </g>
</svg>
