<svg xmlns="http://www.w3.org/2000/svg" xmlns:xlink="http://www.w3.org/1999/xlink" width="246" height="44" viewBox="0 0 246 44">
    <defs>
        <path id="j8xvtmmuia" d="M0.005 0.228L3.92 0.228 3.92 3.982 0.005 3.982z"/>
    </defs>
    <g fill="none" fill-rule="evenodd" opacity=".424">
        <g>
            <g>
                <path fill="#FFF" d="M62.964 18.188c-.603 0-1.075-.472-1.075-1.074V10.01H51.667v7.104c0 .602-.472 1.074-1.1 1.074-.604 0-1.076-.472-1.076-1.074V1.44c0-.578.472-1.048 1.127-1.048.577 0 1.049.47 1.049 1.048v6.63h10.222V1.44c0-.578.472-1.048 1.127-1.048.577 0 1.048.47 1.048 1.048v15.674c0 .602-.471 1.074-1.1 1.074M78.395 2.2c-3.932 0-6.422 3.014-6.422 7.102 0 4.064 2.49 7.104 6.422 7.104 3.905 0 6.421-3.04 6.421-7.104 0-4.088-2.516-7.102-6.421-7.102m0 16.146c-5.19 0-8.676-3.88-8.676-9.044 0-5.163 3.486-9.041 8.676-9.041 5.163 0 8.675 3.878 8.675 9.041 0 5.164-3.512 9.044-8.675 9.044M98.032 18.346c-2.594 0-4.638-.866-6.132-2.177-.237-.209-.341-.497-.341-.785 0-.524.393-1.101 1.022-1.101.209 0 .446.052.628.21 1.207 1.074 2.885 1.913 4.901 1.913 3.12 0 4.116-1.677 4.116-3.014 0-4.509-10.352-2.018-10.352-8.257 0-2.883 2.568-4.849 6.002-4.849 2.254 0 4.193.682 5.608 1.862.237.21.367.498.367.786 0 .523-.445 1.048-1.022 1.048-.21 0-.445-.078-.628-.235-1.286-1.049-2.884-1.52-4.483-1.52-2.097 0-3.59 1.126-3.59 2.778 0 3.931 10.353 1.677 10.353 8.204 0 2.542-1.73 5.137-6.448 5.137M116.77 2.489h-4.587v6.657h4.587c2.071 0 3.487-1.364 3.487-3.33 0-1.965-1.416-3.327-3.487-3.327m.262 8.596h-4.849v6.029c0 .602-.471 1.074-1.1 1.074-.603 0-1.075-.472-1.075-1.074V2.12c0-.865.707-1.572 1.573-1.572h5.451c3.513 0 5.478 2.41 5.478 5.268 0 2.857-2.018 5.268-5.478 5.268M128.423 18.188c-.603 0-1.075-.472-1.075-1.074V1.44c0-.578.472-1.048 1.127-1.048.577 0 1.048.47 1.048 1.048v15.674c0 .602-.47 1.074-1.1 1.074M146.894 2.489h-4.77v14.625c0 .602-.471 1.074-1.1 1.074-.603 0-1.075-.472-1.075-1.074V2.489h-4.744c-.524 0-.944-.42-.944-.997 0-.523.42-.943.944-.943h11.69c.524 0 .943.42.943.996 0 .524-.419.944-.944.944M156.956 2.803l-3.722 9.41h7.418l-3.696-9.41zm6.71 15.385c-.445 0-.864-.261-1.048-.708l-1.31-3.328h-8.703l-1.31 3.328c-.183.447-.602.708-1.049.708-.68 0-1.178-.55-1.178-1.152 0-.132.026-.29.078-.42l6.029-15.045c.288-.708.97-1.18 1.781-1.18.76 0 1.442.472 1.73 1.18l6.081 15.045c.053.13.08.288.08.42 0 .523-.473 1.152-1.18 1.152zM179.16 18.031h-7.94c-.866 0-1.574-.707-1.574-1.573V1.44c0-.577.472-1.048 1.127-1.048.577 0 1.049.47 1.049 1.048v14.652h7.339c.525 0 .943.418.943.943 0 .577-.418.996-.943.996M50.567 42.045c-.603 0-1.076-.472-1.076-1.075V25.297c0-.578.473-1.049 1.127-1.049.578 0 1.048.471 1.048 1.049V40.97c0 .603-.47 1.075-1.1 1.075M71.27 42.045c-.418 0-.838-.21-1.074-.551l-9.907-13.55V40.97c0 .603-.471 1.075-1.1 1.075-.604 0-1.076-.472-1.076-1.075V25.558c0-.68.577-1.31 1.39-1.31.445 0 .891.21 1.153.577l9.75 13.236V25.297c0-.578.472-1.049 1.127-1.049.577 0 1.048.471 1.048 1.049v15.517c0 .629-.523 1.23-1.31 1.23M89.989 26.345h-4.77V40.97c0 .603-.472 1.075-1.101 1.075-.602 0-1.075-.472-1.075-1.075V26.345H78.3c-.524 0-.943-.42-.943-.996 0-.524.42-.943.943-.943h11.69c.525 0 .943.42.943.995 0 .525-.418.944-.943.944M106.362 41.888h-9.095c-.866 0-1.573-.708-1.573-1.572V25.977c0-.864.707-1.572 1.573-1.572h9.095c.524 0 .943.42.943.996 0 .524-.419.944-.943.944h-8.493v5.635h8.309c.525 0 .944.42.944.996 0 .524-.42.944-.944.944h-8.309v6.028h8.493c.524 0 .943.419.943.944 0 .576-.419.996-.943.996M120.9 42.229c-4.98 0-8.99-3.643-8.99-9.07 0-5.425 4.01-9.042 8.99-9.042 2.621 0 4.613.996 6.003 2.385.21.183.288.473.288.734 0 .577-.419 1.023-.996 1.023-.262 0-.499-.105-.708-.316-1.1-1.178-2.857-1.886-4.587-1.886-3.826 0-6.736 2.935-6.736 7.103 0 4.14 2.91 7.129 6.736 7.129 2.097 0 3.826-1.022 4.692-1.888v-3.564h-5.217c-.523 0-.943-.42-.943-.996 0-.524.42-.944.943-.944h5.82c.865 0 1.573.709 1.573 1.573v3.46c0 2.7-3.775 4.299-6.868 4.299M135.815 26.345v6.683h4.587c2.07 0 3.486-1.389 3.486-3.355 0-1.965-1.415-3.328-3.486-3.328h-4.587zm5.792 8.414l3.75 5.687c.103.183.156.368.156.55 0 .525-.446 1.049-1.075 1.049-.34 0-.655-.157-.865-.472l-4.272-6.63h-3.486v6.027c0 .603-.472 1.075-1.1 1.075-.603 0-1.076-.472-1.076-1.075V25.978c0-.865.708-1.572 1.573-1.572h5.452c3.198 0 5.478 2.044 5.478 5.267 0 3.145-2.15 4.875-4.535 5.086zM158.177 26.66l-3.722 9.41h7.418l-3.696-9.41zm6.71 15.385c-.446 0-.864-.263-1.049-.708l-1.31-3.329h-8.702l-1.311 3.329c-.183.445-.602.708-1.048.708-.68 0-1.179-.55-1.179-1.153 0-.131.027-.289.079-.42l6.028-15.045c.288-.707.97-1.179 1.782-1.179.76 0 1.441.472 1.73 1.18l6.081 15.045c.052.13.079.288.079.42 0 .523-.472 1.152-1.18 1.152zM179.955 26.345h-4.77V40.97c0 .603-.471 1.075-1.102 1.075-.602 0-1.074-.472-1.074-1.075V26.345h-4.744c-.523 0-.943-.42-.943-.996 0-.524.42-.943.943-.943h11.69c.525 0 .943.42.943.995 0 .525-.418.944-.943.944M186.734 42.045c-.603 0-1.074-.472-1.074-1.075V25.297c0-.578.47-1.049 1.127-1.049.577 0 1.048.471 1.048 1.049V40.97c0 .603-.47 1.075-1.101 1.075M202.13 26.057c-3.932 0-6.421 3.014-6.421 7.102 0 4.063 2.489 7.103 6.42 7.103 3.907 0 6.423-3.04 6.423-7.103 0-4.088-2.516-7.102-6.423-7.102m0 16.145c-5.189 0-8.675-3.88-8.675-9.043 0-5.163 3.486-9.042 8.675-9.042 5.165 0 8.677 3.879 8.677 9.042 0 5.164-3.512 9.043-8.677 9.043M229.593 42.045c-.419 0-.838-.21-1.073-.551l-9.909-13.55V40.97c0 .603-.473 1.075-1.1 1.075-.604 0-1.075-.472-1.075-1.075V25.558c0-.68.577-1.31 1.388-1.31.446 0 .891.21 1.153.577l9.75 13.236V25.297c0-.578.472-1.049 1.13-1.049.575 0 1.046.471 1.046 1.049v15.517c0 .629-.524 1.23-1.31 1.23M24.216 41.607L24.216 0 38.558 3.19 38.558 43.303zM0 41.607L0 0 14.342 3.19 14.342 43.303z" transform="translate(-972 -5751) translate(972 5751)"/>
                <path fill="#FFF" d="M14.342 17.279L38.558 17.279 24.216 11.336 0 11.336 3.721 12.878z" transform="translate(-972 -5751) translate(972 5751)"/>
                <g>
                    <path fill="#FFF" d="M3.314.74h-.99v2.97c0 .15-.128.273-.291.273-.158 0-.285-.122-.285-.272L1.747.74h-.99C.616.74.506.63.506.49c0-.132.11-.238.25-.238h2.557c.14 0 .25.105.25.249 0 .128-.11.238-.25.238" transform="translate(-972 -5751) translate(972 5751) translate(236.089 24.271)"/>
                    <g transform="translate(-972 -5751) translate(972 5751) translate(236.089 24.271) translate(4.455)">
                        <mask id="sfyom4w9tb" fill="#fff">
                            <use xlink:href="#j8xvtmmuia"/>
                        </mask>
                        <path fill="#FFF" d="M3.629 3.982c-.163 0-.292-.122-.292-.272V1.027L2.103 3.893c-.023.05-.076.089-.152.09-.058 0-.117-.04-.14-.09L.581 1.028V3.71c0 .15-.127.272-.29.272-.158 0-.286-.122-.286-.272V.623c0-.211.186-.394.42-.394C.64.22.848.307.93.501l1.026 2.384L2.987.5c.07-.166.245-.271.431-.271.262-.012.502.149.502.393V3.71c0 .15-.128.272-.291.272" mask="url(#sfyom4w9tb)"/>
                    </g>
                </g>
            </g>
        </g>
    </g>
</svg>
