<svg xmlns="http://www.w3.org/2000/svg" width="80" height="85" viewBox="0 0 80 85">
    <g fill="none" fill-rule="evenodd" opacity=".424">
        <g fill="#FFF">
            <g>
                <path d="M69.325 0c2.344 0 4.245 1.884 4.245 4.207v17.518l-11.447 1.886c-1.844-3.337-6.072-4.577-12.573-3.464l-10.516 1.8-.327 27.96 9.866-1.688.118-10.167 4.7 9.343 10.132-1.734-2.389-4.047 12.435-2.04.001 22.611c0 2.324-1.9 4.208-4.245 4.208h-58.5c-2.345 0-4.246-1.884-4.246-4.208V4.207C6.58 1.884 8.48 0 10.825 0h58.5zM36.84 22.843c-2.243-.67-4.63-.808-7.23-.363-4.971.85-8.918 3.516-11.236 7.386-.233.388-.448.783-.644 1.184L6.591 32.915v.95l10.68-1.78c-.254.634-.463 1.282-.629 1.942l-10.05 1.694v.95l9.835-1.648c-.112.618-.187 1.247-.224 1.884L6.59 38.524v.95l9.584-1.602c0 .595.03 1.197.094 1.805L6.59 41.31v.951l9.8-1.646.058.353c.086.496.198.982.333 1.456l-10.19 1.723v.95l10.485-1.761c.215.59.467 1.16.755 1.705l-11.24 1.887v.95l11.747-1.964c.386.61.82 1.183 1.298 1.71l-13.046 2.19v.95l13.867-2.317c.562.512 1.172.967 1.822 1.358 2.728 1.64 5.978 2.215 9.382 1.634 1.683-.288 3.274-.872 4.85-1.767l.133-10.092c-1.567 1.4-3.38 2.296-4.91 2.557-2.906.498-5.09-.963-5.592-3.843-.588-3.373 1.437-6.217 4.879-6.806 1.797-.307 3.655-.04 5.714.7zm36.73 13.84v1.921l-12.95 2.138-1.04-1.762 13.99-2.297zm0-2.782v1.812l-14.504 2.396-.984-1.668 15.487-2.54zm0-2.836v1.867L58.984 35.34c1.113-.616 2.016-1.398 2.696-2.32l11.888-1.955zm-20.23-2.278c.361 2.084-.894 3.236-3.878 3.746l-.726.125.077-5.438.574-.098c2.447-.42 3.674.074 3.953 1.665zm20.23-.509v1.817l-11.234 1.857c.303-.602.527-1.25.67-1.937l10.563-1.737zm0-2.814v1.845l-10.42 1.723c.053-.593.051-1.211-.008-1.852l10.427-1.716zm0-2.77v1.801l-10.553 1.748-.002-.01c-.108-.62-.267-1.198-.476-1.733l11.03-1.806z" transform="translate(-783 -5731) translate(783 5731)"/>
                <g>
                    <path d="M3.814 5.887c-.357.13-.705.194-1.06.194-.722 0-1.37-.235-1.872-.672C.324 4.923 0 4.179 0 3.369c0-.859.267-1.62.794-2.236C1.409.413 2.316 0 3.368 0c.551 0 1.037.113 1.474.332l-.356 1.935c-.397-.226-.77-.348-1.15-.348-.729 0-1.247.518-1.247 1.239 0 .615.397.996 1.012.996.324 0 .729-.122 1.101-.357l-.388 2.09zM7.611 3.79l.405-.964c.065-.162.17-.445.292-.834-.008.146-.008.283-.008.405 0 .307.016.567.024.769l.024.623h-.737zm-3.15 2.137h2.26l.316-.77h1.392l.04.77h2.057L9.773.137H7.482l-3.02 5.79zM12.049.137L14.186.137 13.441 4.146 15.223 4.146 14.891 5.927 10.98 5.927zM16.656.137L18.794.137 18.049 4.146 19.83 4.146 19.498 5.927 15.587 5.927zM22.778 3.79l.404-.964c.065-.162.17-.445.292-.834-.008.146-.008.283-.008.405 0 .307.016.567.024.769l.024.623h-.736zm-3.15 2.137h2.259l.315-.77h1.394l.04.77h2.057L24.94.137h-2.292l-3.02 5.79zM27.215.137L29.312.137 28.948 2.138 30.089 2.138 30.454.137 32.559.137 31.482 5.927 29.385 5.927 29.774 3.846 28.632 3.846 28.243 5.927 26.146 5.927zM35.304 3.79l.405-.964c.064-.162.17-.445.291-.834-.008.146-.008.283-.008.405 0 .307.016.567.024.769l.025.623h-.737zm-3.15 2.137h2.26l.315-.77h1.393l.04.77h2.057l-.753-5.79h-2.291l-3.02 5.79zM39.741.137h2.122l.664 1.838c.097.276.25.656.356 1.175l.559-3.013h2.097l-1.069 5.79h-2.122L41.28 2.94c-.016.42-.097.866-.187 1.368l-.3 1.62h-2.12L39.74.137zM51.32 2.704l.21-1.125h.122c.518 0 .754.145.754.485 0 .446-.3.64-.932.64h-.154zm-2.68 3.223h2.089l.389-2.105.631 2.105h2.146L53.061 3.7c.907-.194 1.425-.858 1.425-1.821 0-1.126-.858-1.742-2.55-1.742h-2.228l-1.068 5.79zM58.365 1.927c.55 0 .963.397.963.98 0 .688-.494 1.255-1.15 1.255-.59 0-.963-.405-.963-1.012 0-.688.485-1.223 1.15-1.223zm-.316 4.154c1.052 0 1.944-.397 2.575-1.133.526-.608.794-1.377.794-2.236C61.418 1.125 60.26 0 58.494 0c-1.036 0-1.951.413-2.567 1.133-.526.616-.793 1.37-.793 2.235 0 .81.332 1.555.883 2.033.526.453 1.198.68 2.032.68zM64.47 3.79l.405-.964c.065-.162.17-.445.291-.834-.008.146-.008.283-.008.405 0 .307.017.567.025.769l.024.623h-.736zm-3.15 2.137h2.26l.315-.77h1.393l.04.77h2.057l-.753-5.79H64.34l-3.02 5.79zM71.96 5.887c-.356.13-.704.194-1.06.194-.721 0-1.37-.235-1.872-.672-.558-.486-.882-1.23-.882-2.04 0-.859.268-1.62.794-2.236C69.555.413 70.462 0 71.515 0c.55 0 1.036.113 1.473.332l-.356 1.935c-.397-.226-.769-.348-1.15-.348-.728 0-1.247.518-1.247 1.239 0 .615.397.996 1.013.996.323 0 .728-.122 1.1-.357l-.388 2.09zM74.243.137L76.341.137 75.976 2.138 77.118 2.138 77.482.137 79.588.137 78.51 5.927 76.414 5.927 76.802 3.846 75.661 3.846 75.272 5.927 73.175 5.927zM8.889 11.363h.109c.348 0 .877-.053.877.49 0 .495-.534.478-.85.478h-.136v-.968zm.577 1.863c.752 0 1.488-.31 1.488-1.254 0-.626-.25-1.062-.84-1.146v-.012c.333-.185.453-.513.453-.92 0-.859-.49-1.169-1.22-1.169H7.82v4.5h1.645zM8.89 9.62h.076c.289 0 .621.025.621.436 0 .382-.294.436-.577.436h-.12V9.62zM15.182 8.725v2.531c0 .579-.022 1.152-.43 1.587-.344.37-.883.502-1.363.502s-1.019-.131-1.362-.502c-.409-.435-.43-1.008-.43-1.587v-2.53h1.068v2.368c0 .585.038 1.224.724 1.224.687 0 .725-.639.725-1.224V8.725h1.068zM18.222 9.883c-.196-.179-.446-.298-.708-.298-.196 0-.458.125-.458.375 0 .263.29.365.474.43l.273.09c.572.185 1.013.501 1.013 1.23 0 .447-.098.907-.425 1.211-.321.299-.752.424-1.166.424-.517 0-1.024-.191-1.444-.513l.458-.943c.267.257.583.465.948.465.25 0 .518-.137.518-.454 0-.328-.42-.441-.649-.513-.67-.209-1.111-.4-1.111-1.271 0-.914.594-1.51 1.416-1.51.415 0 .921.143 1.286.37l-.425.907zM20.5 13.226L19.432 13.226 19.432 8.725 20.5 8.725zM21.306 8.725L22.374 8.725 24.33 11.477 24.341 11.477 24.341 8.725 25.409 8.725 25.409 13.226 24.341 13.226 22.385 10.468 22.374 10.468 22.374 13.226 21.306 13.226zM27.284 9.715L27.284 10.468 28.488 10.468 28.488 11.459 27.284 11.459 27.284 12.235 28.553 12.235 28.553 13.226 26.216 13.226 26.216 8.725 28.553 8.725 28.553 9.715zM31.577 9.883c-.196-.179-.447-.298-.708-.298-.196 0-.458.125-.458.375 0 .263.289.365.474.43l.273.09c.572.185 1.013.501 1.013 1.23 0 .447-.098.907-.425 1.211-.321.299-.752.424-1.166.424-.517 0-1.024-.191-1.444-.513l.458-.943c.267.257.583.465.948.465.25 0 .517-.137.517-.454 0-.328-.419-.441-.648-.513-.67-.209-1.111-.4-1.111-1.271 0-.914.594-1.51 1.416-1.51.414 0 .921.143 1.286.37l-.425.907zM35.043 9.883c-.197-.179-.447-.298-.708-.298-.197 0-.458.125-.458.375 0 .263.288.365.474.43l.272.09c.572.185 1.014.501 1.014 1.23 0 .447-.099.907-.425 1.211-.322.299-.752.424-1.167.424-.517 0-1.024-.191-1.443-.513l.457-.943c.267.257.583.465.948.465.25 0 .518-.137.518-.454 0-.328-.42-.441-.648-.513-.67-.209-1.112-.4-1.112-1.271 0-.914.594-1.51 1.417-1.51.414 0 .92.143 1.286.37l-.425.907zM40.486 9.883c-.196-.179-.447-.298-.708-.298-.197 0-.458.125-.458.375 0 .263.289.365.474.43l.272.09c.572.185 1.014.501 1.014 1.23 0 .447-.098.907-.425 1.211-.322.299-.752.424-1.166.424-.518 0-1.024-.191-1.444-.513l.458-.943c.266.257.583.465.948.465.25 0 .517-.137.517-.454 0-.328-.42-.441-.648-.513-.67-.209-1.112-.4-1.112-1.271 0-.914.594-1.51 1.417-1.51.414 0 .92.143 1.286.37l-.425.907zM43.76 9.71c.638 0 1.161.567 1.161 1.188 0 .775-.523 1.343-1.16 1.343-.638 0-1.161-.568-1.161-1.343 0-.621.523-1.188 1.16-1.188zm0-1.134c-1.182 0-2.272.955-2.272 2.316 0 1.456.954 2.483 2.272 2.483 1.32 0 2.273-1.027 2.273-2.483 0-1.36-1.09-2.316-2.273-2.316zM47.706 12.235L48.986 12.235 48.986 13.226 46.638 13.226 46.638 8.725 47.706 8.725zM53.007 8.725v2.531c0 .579-.021 1.152-.43 1.587-.343.37-.883.502-1.363.502-.479 0-1.018-.131-1.362-.502-.409-.435-.43-1.008-.43-1.587v-2.53h1.068v2.368c0 .585.038 1.224.724 1.224.687 0 .725-.639.725-1.224V8.725h1.068zM55.427 13.226L54.359 13.226 54.359 9.715 53.475 9.715 53.475 8.725 56.309 8.725 56.309 9.715 55.427 9.715zM57.873 13.226L56.805 13.226 56.805 8.725 57.873 8.725zM60.744 9.71c.638 0 1.161.567 1.161 1.188 0 .775-.523 1.343-1.16 1.343-.638 0-1.161-.568-1.161-1.343 0-.621.523-1.188 1.16-1.188zm0-1.134c-1.182 0-2.272.955-2.272 2.316 0 1.456.954 2.483 2.272 2.483 1.32 0 2.273-1.027 2.273-2.483 0-1.36-1.09-2.316-2.273-2.316zM63.621 8.725L64.689 8.725 66.646 11.477 66.656 11.477 66.656 8.725 67.724 8.725 67.724 13.226 66.656 13.226 64.7 10.468 64.689 10.468 64.689 13.226 63.621 13.226zM70.786 9.883c-.196-.179-.446-.298-.708-.298-.196 0-.458.125-.458.375 0 .263.29.365.475.43l.272.09c.572.185 1.013.501 1.013 1.23 0 .447-.098.907-.424 1.211-.322.299-.753.424-1.167.424-.517 0-1.024-.191-1.444-.513l.458-.943c.267.257.583.465.948.465.25 0 .518-.137.518-.454 0-.328-.42-.441-.649-.513-.67-.209-1.111-.4-1.111-1.271 0-.914.593-1.51 1.417-1.51.414 0 .92.143 1.286.37l-.426.907zM74.923 9.402c-.016-.364-.318-.478-.584-.478-.2 0-.537.056-.537.413 0 .2.141.265.279.298l.672.154c.304.072.534.256.534.63 0 .557-.518.71-.921.71-.436 0-.607-.13-.712-.226-.2-.18-.239-.376-.239-.596h.298c0 .426.348.55.65.55.23 0 .616-.058.616-.396 0-.246-.115-.325-.502-.416l-.482-.111c-.153-.037-.501-.145-.501-.555 0-.367.24-.727.81-.727.822 0 .904.491.917.75h-.298zM77.628 11.068v-1.39c0-.07.007-.368.007-.587h-.007l-.662 1.977h-.315l-.663-1.974h-.006c0 .216.006.515.006.584v1.39h-.308V8.714h.456l.672 1.99h.007l.668-1.99h.453v2.354h-.308z" transform="translate(-783 -5731) translate(783 5731) translate(0 70.58)"/>
                </g>
            </g>
        </g>
    </g>
</svg>
