<svg xmlns="http://www.w3.org/2000/svg" width="70" height="70" viewBox="0 0 70 70">
    <g fill="none" fill-rule="evenodd" opacity=".42">
        <g fill="#FEFEFE">
            <g>
                <path d="M31.449 38.333L36.882 38.333 36.882 21.534 48.333 21.534 48.333 16.667 20 16.667 20 21.534 31.449 21.534z" transform="translate(-1543 -5738) translate(1543 5738)"/>
                <g>
                    <path d="M34.95 49.022c-6.355 0-11.529-5.171-11.529-11.529H18.68c0 8.972 7.3 16.272 16.27 16.272 8.974 0 16.274-7.3 16.274-16.272H46.48c0 6.358-5.172 11.53-11.53 11.53" transform="translate(-1543 -5738) translate(1543 5738)"/>
                    <path d="M34.95.097C15.68.097 0 15.777 0 35.049 0 54.322 15.68 70 34.95 70c19.273 0 34.953-15.678 34.953-34.951C69.903 15.777 54.223.097 34.95.097m0 64.846c-16.483 0-29.895-13.41-29.895-29.894 0-16.484 13.412-29.895 29.895-29.895 16.486 0 29.896 13.411 29.896 29.895 0 16.485-13.41 29.894-29.896 29.894" transform="translate(-1543 -5738) translate(1543 5738)"/>
                </g>
            </g>
        </g>
    </g>
</svg>
