<svg xmlns="http://www.w3.org/2000/svg" xmlns:xlink="http://www.w3.org/1999/xlink" width="49" height="41" viewBox="0 0 49 41">
  <defs>
    <clipPath id="clip-path">
      <rect id="Rectangle_81" data-name="Rectangle 81" width="49" height="41" transform="translate(1235 1546)" fill="#fff" stroke="#707070" stroke-width="1"/>
    </clipPath>
  </defs>
  <g id="Mask_Group_1" data-name="Mask Group 1" transform="translate(-1235 -1546)" clip-path="url(#clip-path)">
    <g id="group-17" transform="translate(1238 1546.751)" opacity="0.424">
      <g id="Group_1104" data-name="Group 1104">
        <g id="Group_1103" data-name="Group 1103">
          <path id="Path_2408" data-name="Path 2408" d="M49.907,29.943V9.969H70.131v3.4H54.023v4.581H67.339v3.437H54.023v5.118H70.131v3.437Z" fill="#fff" fill-rule="evenodd"/>
          <g id="Group_1102" data-name="Group 1102" transform="translate(0 0.077)">
            <path id="Path_2409" data-name="Path 2409" d="M121.926,9.892h4.08V20.165c0,7.158-5.046,10.166-11.24,10.166S103.6,27.323,103.6,20.165V9.892h4.046V20.165c0,5.083,3.543,6.693,7.122,6.693,3.616,0,7.16-1.61,7.16-6.693V9.892Z" fill="#fff" fill-rule="evenodd"/>
            <path id="Path_2410" data-name="Path 2410" d="M129.819,29.866H133.9V9.893h-4.081Zm12.365-13.245V29.865H138.1V9.534l19.938,13.888V9.893h4.08v20.33Zm24.143,13.244V9.892h20.224v3.4H170.443v4.581h13.315V21.31H170.443v5.119h16.108v3.436Zm36.117-3.436c4.582,0,8.985-1.432,8.985-6.55,0-5.084-4.4-6.55-8.986-6.55h-8.2v13.1h8.2Zm-12.278,3.436V9.893h12.243c7.91,0,13.35,2.9,13.35,9.986,0,7.122-5.44,9.986-13.35,9.986H190.166Zm44.726-7.2V19.234h11.06a8.665,8.665,0,0,1,.107,1.36c-.179,5.835-5.87,9.629-13.207,9.629-8.663,0-14.283-4.331-14.283-10.416,0-6.12,5.764-10.273,14.139-10.273a25.642,25.642,0,0,1,10.381,1.9v3.686a21.141,21.141,0,0,0-9.844-2.111c-5.8,0-10.345,2.255-10.345,6.8,0,4.224,4.188,6.945,9.915,6.945,4.26,0,7.84-1.289,8.7-4.081h-6.621Zm14.067,7.195V9.892h20.224v3.4H253.075v4.581H266.39V21.31H253.075v5.119h16.108v3.436Zm-152.7-9.931c0,4.332-4.4,6.872-10.166,6.872-5.8,0-10.092-2.54-10.092-6.872V19.9c0-4.334,4.295-6.872,10.092-6.872,5.764,0,10.166,2.538,10.166,6.872v.033ZM86.09,9.557c-8.625,0-14.425,4.184-14.425,10.344v.033c0,6.158,5.8,10.343,14.425,10.343s14.5-4.15,14.5-10.343V19.9c0-6.192-5.866-10.344-14.5-10.344Z" fill="#fff" fill-rule="evenodd"/>
            <path id="Path_2411" data-name="Path 2411" d="M87.993,21.649l5.775,0,8.187,8.684H96.148Zm-45.3-11.585-3.04,4.123a38.428,38.428,0,0,0-2.994-2.493c-.705-.532-1.407-1.015-2.1-1.458C17.224-.769,2.924,14.187,2.924,14.187L0,10.064A30.145,30.145,0,0,1,37.722,5.987c.787.507,1.484,1.007,2.09,1.474a21.68,21.68,0,0,1,2.882,2.6M34.062,22.35v0" fill="#fff" fill-rule="evenodd"/>
            <path id="Path_2412" data-name="Path 2412" d="M6.023,18.53,20.626,38.4a.849.849,0,0,0,1.354.018c.654-.842,1.656-2.145,2.467-3.26.021-.02.544-.41-.5-2.245-.393-.686-1.2-2.293-.241-3.42a4.912,4.912,0,0,0,.9-3.357s2.334-.244,2.518,5.345c.84-1.1,1.558-2.119,2.405-3.308-3.48-9.495-11.013-7.118-11.013-7.118,8.071,2.368,1.791,9.007,1.791,9.007a47.749,47.749,0,0,1,2.346,4.3c.11.549-.68,1.316-1.155,1.316a1.381,1.381,0,0,1-.885-.526l-5.944-8.9c1.712-.439.463-2.606.463-2.606-.093,1.627-1.441,1.342-1.441,1.342L9.14,18.1c2.477-.56,2.954,1.14,2.954,1.14C24.551,10.248,33.9,22.157,33.9,22.16a44.308,44.308,0,0,1,2.652-3.63s-14.212-16.185-30.53,0" fill="#fff" fill-rule="evenodd"/>
          </g>
        </g>
      </g>
    </g>
  </g>
</svg>
