<svg xmlns="http://www.w3.org/2000/svg" xmlns:xlink="http://www.w3.org/1999/xlink" width="191" height="34" viewBox="0 0 191 34">
    <defs>
        <path id="jloucm0a9a" d="M0 0.022L24.547 0.022 24.547 33.056 0 33.056z"/>
        <path id="qasg3sjqvc" d="M0.688 0.537L29.308 0.537 29.308 31.933 0.688 31.933z"/>
    </defs>
    <g fill="none" fill-rule="evenodd">
        <g>
            <g>
                <g transform="translate(-44 -35) translate(44 35)">
                    <mask id="ypjtmli1xb" fill="#fff">
                        <use xlink:href="#jloucm0a9a"/>
                    </mask>
                    <path fill="#FFF" d="M13.01 33.056c-2.71-.006-5.184-.432-7.426-1.279-1.677-.634-3.296-1.521-4.856-2.66-.85-.622-.975-1.87-.27-2.66H.46c.595-.666 1.597-.783 2.305-.244 1.375 1.05 2.76 1.864 4.157 2.447 1.804.754 3.885 1.132 6.24 1.138 2.29.005 4.122-.503 5.496-1.524 1.374-1.021 2.062-2.327 2.065-3.917v-.093c.001-.734-.125-1.4-.383-1.996-.257-.596-.707-1.14-1.351-1.633-.646-.49-1.538-.935-2.682-1.335-1.146-.399-2.605-.785-4.378-1.157-1.936-.4-3.62-.863-5.053-1.388-1.436-.522-2.62-1.152-3.554-1.888-.934-.737-1.626-1.594-2.075-2.574-.45-.979-.674-2.128-.67-3.443v-.09c.002-1.254.28-2.416.83-3.486.55-1.068 1.328-1.992 2.33-2.77 1-.778 2.18-1.386 3.536-1.827 1.356-.44 2.84-.658 4.454-.655 2.483.007 4.652.34 6.507 1.001 1.276.457 2.526 1.069 3.749 1.836.896.563 1.096 1.815.43 2.648-.558.7-1.546.86-2.289.37-1.16-.768-2.325-1.354-3.494-1.761-1.596-.554-3.265-.833-5.008-.837-2.226-.005-3.986.488-5.277 1.478-1.294.993-1.94 2.22-1.944 3.689v.092c-.002.764.125 1.445.38 2.043.258.596.722 1.148 1.397 1.655.675.506 1.607.966 2.798 1.382 1.19.415 2.717.808 4.583 1.18 3.764.805 6.538 1.911 8.321 3.322 1.784 1.411 2.672 3.34 2.667 5.786V24c-.004 1.377-.293 2.621-.868 3.736-.576 1.115-1.369 2.07-2.377 2.862-1.01.793-2.225 1.402-3.645 1.826-1.42.425-2.97.637-4.647.633" mask="url(#ypjtmli1xb)"/>
                </g>
                <path fill="#FFF" d="M48.581 19.863L36.371 3.887C35.453 2.689 36.343.997 37.887 1h.204c.602.001 1.168.282 1.52.754l9.896 13.24c.746.997 2.286 1.004 3.041.01L62.601 1.797c.355-.467.92-.743 1.52-.741 1.544.003 2.426 1.702 1.503 2.896L53.347 19.828c-.242.312-.371.689-.373 1.078l-.023 10.285c-.003 1.001-.846 1.81-1.885 1.809l-.266-.001c-1.039-.003-1.88-.815-1.877-1.816l.024-10.24c.002-.39-.128-.768-.366-1.08M133.25 4.353l-8.524-.02c-.956-.002-1.729-.75-1.726-1.67.001-.92.778-1.665 1.734-1.663l24.54.052c.956.001 1.727.75 1.726 1.67-.001.922-.78 1.666-1.734 1.665l-8.525-.019c-.956-.002-1.733.743-1.734 1.664l-.06 25.304c0 .922-.777 1.666-1.733 1.664l-.568-.001c-.956-.001-1.73-.75-1.727-1.67l.058-25.305c.002-.922-.77-1.67-1.727-1.671" transform="translate(-44 -35) translate(44 35)"/>
                <g transform="translate(-44 -35) translate(44 35) translate(161 1)">
                    <mask id="3ob3o19ead" fill="#fff">
                        <use xlink:href="#qasg3sjqvc"/>
                    </mask>
                    <path fill="#FFF" d="M2.763.537c1.109.003 2.005.857 2.002 1.907l-.028 11.868c-.003 1.05.894 1.904 2.003 1.905l16.515.036c1.108.002 2.008-.847 2.01-1.899l.028-11.866c.002-1.051.904-1.9 2.011-1.898h.001c1.109.002 2.005.855 2.003 1.905l-.064 27.54c-.003 1.05-.904 1.9-2.012 1.898h-.002c-1.107-.002-2.003-.856-2.001-1.907l.02-8.554c.003-1.05-.895-1.903-2.002-1.905L6.732 19.53c-1.11-.002-2.01.848-2.012 1.899l-.02 8.553c-.002 1.05-.902 1.9-2.011 1.898-1.108-.003-2.004-.856-2.001-1.907L.752 2.436c.002-1.05.902-1.901 2.01-1.899" mask="url(#3ob3o19ead)"/>
                </g>
                <path fill="#FFF" d="M80.035 2.39c.004-1.294 1.815-1.882 2.755-.895l23.292 24.477.014-7.12c.003-.959.878-1.734 1.957-1.733 1.077.002 1.948.783 1.947 1.742l-.03 12.949c-.002 1.108-1.553 1.612-2.357.766L83.925 7.683 83.9 18.021c-.002.958-.879 1.735-1.955 1.733-1.077-.003-1.948-.782-1.946-1.74l.035-15.624z" transform="translate(-44 -35) translate(44 35)"/>
            </g>
        </g>
    </g>
</svg>
