<svg xmlns="http://www.w3.org/2000/svg" xmlns:xlink="http://www.w3.org/1999/xlink" width="110" height="42" viewBox="0 0 110 42">
    <defs>
        <path id="ku9t550jsa" d="M0.01 0.009L30.309 0.009 30.309 30.031 0.01 30.031z"/>
    </defs>
    <g fill="none" fill-rule="evenodd" opacity=".424">
        <g>
            <g>
                <path fill="#FFF" d="M0 0h10.192l6.204 20.771c.886 2.992 1.828 6.98 1.828 6.98h.11s.997-4.044 1.829-6.98L26.31 0h9.915L23.209 39.605H13.072L0 0zM49.844 29.468v-3.379c-1.164.61-2.825 1.053-4.653 1.496-3.49.775-5.594 1.572-5.484 4.1.11 2.53 1.985 3.042 4.431 2.88 3.599-.24 5.706-2.66 5.706-5.097m-18.28 2.216c0-6.26 4.985-8.143 10.857-8.918 5.318-.665 7.201-1.219 7.201-3.158 0-1.828-1.163-3.046-3.877-3.046-2.88 0-4.321 1.274-4.598 3.656h-8.309c.222-5.263 4.265-9.75 12.851-9.75 4.265 0 7.146.776 9.195 2.327 2.437 1.773 3.6 4.542 3.6 8.087l.032 18.723-8.69-.001-.038-3.157h-.11c-1.662 2.382-4.155 3.878-8.42 3.878-5.65 0-9.694-3.047-9.694-8.641M61.507 11.244h8.64v4.432h.167c1.994-3.38 4.32-4.875 7.754-4.875.832 0 1.386.055 1.773.222v7.755h-.221c-5.54-.776-9.085 1.938-9.085 8.087v12.74h-9.028v-28.36z" transform="translate(-187 -5753) translate(187 5753)"/>
                <g transform="translate(-187 -5753) translate(187 5753) translate(79.463 10.46)">
                    <mask id="cj3afnqgrb" fill="#fff">
                        <use xlink:href="#ku9t550jsa"/>
                    </mask>
                    <path fill="#FFF" d="M21.62 15.02c0-5.152-2.555-8.641-6.488-8.641-3.933 0-6.491 3.49-6.491 8.64 0 5.152 2.558 8.586 6.49 8.586 3.934 0 6.489-3.434 6.489-8.585m-21.61 0C.01 6.49 6.103.009 15.187.009c9.14 0 15.122 6.48 15.122 15.01 0 8.531-5.982 15.012-15.122 15.012C6.103 30.03.01 23.55.01 15.02" mask="url(#cj3afnqgrb)"/>
                </g>
            </g>
        </g>
    </g>
</svg>
